    <svg viewBox="0 0 24 24" fill="none" xmlns="http://www.w3.org/2000/svg" >
        <defs>
            <linearGradient id="logo-gradient-aether" x1="0" y1="0" x2="1" y2="1">
                <stop offset="0%" stopColor="blue" />
                <stop offset="100%" stopColor="blue" />
            </linearGradient>
        </defs>
        <path d="M21 15C21 15.5304 20.7893 16.0391 20.4142 16.4142C20.0391 16.7893 19.5304 17 19 17H7L3 21V5C3 4.46957 3.21071 3.96086 3.58579 3.58579C3.96086 3.21071 4.46957 3 5 3H19C19.5304 3 20.0391 3.21071 20.4142 3.58579C20.7893 3.96086 21 4.46957 21 5V15Z" stroke="url(#logo-gradient-aether)" strokeWidth="1.5" strokeLinecap="round" strokeLinejoin="round"/>
        <path d="M12 6L13.5 9.5L17 11L13.5 12.5L12 16L10.5 12.5L7 11L10.5 9.5L12 6Z" stroke="#00DFFC" strokeWidth="1.5" strokeLinecap="round" strokeLinejoin="round"/>
    </svg>